<?xml version="1.0" encoding="iso-8859-1"?>
<svg xmlns="http://www.w3.org/2000/svg" xmlns:xlink="http://www.w3.org/1999/xlink" version="1.1" id="Layer_1" x="0px" y="0px" viewBox="0 0 512.097 512.097" style="enable-background:new 0 0 512.097 512.097;" xml:space="preserve" width="512" height="512">
<g id="XMLID_1593_">
	<g id="XMLID_1661_">
		<g id="XMLID_1349_">
			<path id="XMLID_1472_" d="M491.952,200.305c31.821-50.432,25.787-118.071-18.112-161.97     C431.307-4.199,365.664-12.248,314.209,18.758c-0.791,0.476-1.483,1.052-2.089,1.69c-18.152-4.277-36.926-6.493-56.043-6.493     c-64.737,0-125.599,25.21-171.374,70.985S13.718,191.579,13.718,256.315c0,18.988,2.186,37.638,6.406,55.677     c-0.019,0.029-0.041,0.055-0.06,0.085C4.558,336.71-2.28,366.304,0.811,395.408c3.138,29.544,16.457,57.405,37.503,78.452     c24.658,24.657,57.442,38.237,92.313,38.237c24.935,0,48.801-6.947,69.393-19.919c18.157,4.279,36.935,6.496,56.057,6.496     c51.42,0,100.345-15.819,141.792-45.79l0.135,0.135c1.875,1.875,4.419,2.929,7.071,2.929s5.196-1.054,7.071-2.929l25.862-25.862     c3.092-3.092,3.816-7.834,1.789-11.708l-0.351-0.671c38.068-44.016,58.991-100.111,58.991-158.463     C498.437,237.21,496.224,218.447,491.952,200.305z M478.201,246.315h-27.715l23.354-23.354c0.61-0.61,1.205-1.228,1.8-1.847     C476.959,229.374,477.821,237.782,478.201,246.315z M266.077,321.092l23.406,23.406l-23.406,23.405V321.092z M229.64,284.655     l16.438,16.437v71.91l-19.292-1.739c-2.951-0.26-5.872,0.792-7.969,2.889l-27.883,27.883c-2.452,2.452-3.458,6-2.66,9.374     c0.799,3.375,3.289,6.095,6.58,7.188l41.339,13.728l-27.394,27.393c-1.893,1.893-3.844,3.707-5.846,5.444     c-34.648-18.892-58.209-55.657-58.209-97.822V266.315h89.094l-4.197,4.197C225.735,274.417,225.735,280.749,229.64,284.655z      M311.395,455.873l-2.97-32.962l29.736-29.735l19.579,19.579c-10.885,24.351-29.77,43.421-52.798,54.651l3.564-3.564     C310.603,461.745,311.661,458.827,311.395,455.873z M256.077,478.674c-11.473,0-22.546-1.746-32.968-4.983l26.517-26.517     l8.63,31.459C257.53,478.648,256.806,478.674,256.077,478.674z M266.077,34.514c50.122,4.483,90.789,42.318,99.573,91.097     h-99.573V34.514z M351.906,55.688c27.508,13.192,51.898,31.879,71.745,54.63c-11.754,6.909-24.577,11.553-37.977,13.771     C381.381,97.883,369.307,74.265,351.906,55.688z M246.077,34.514v91.097h-99.573C155.288,76.832,195.955,38.997,246.077,34.514z      M144.895,145.611h101.183v30.55c0,5.522,4.477,10,10,10c5.523,0,10-4.478,10-10v-30.55H367.26c0.051,0,0.101-0.003,0.152-0.003     v100.707H273.81l-6.599-3.454c-3.875-2.026-8.617-1.303-11.709,1.789l-1.852,1.852c-0.618-0.119-1.254-0.187-1.907-0.187H144.743     V145.608C144.794,145.608,144.844,145.611,144.895,145.611z M367.412,266.315v0.253l-18.863,18.864l-36.526-19.117H367.412z      M387.395,144.08c17.309-2.65,33.83-8.733,48.81-17.98c15.246,21.032,26.906,44.821,34.069,70.471     c-3.179,4.274-6.701,8.372-10.577,12.248L425.916,242.6c-13.396-0.807-26.768,2.184-38.504,8.428V145.395     C387.412,144.955,387.399,144.519,387.395,144.08z M459.697,52.477c32.475,32.474,40.478,80.29,24.019,120.332     c-11.951-32.635-30.958-62.56-56.265-87.868c-25.421-25.421-55.499-44.488-88.305-56.428     C379.967,11.49,427.598,20.378,459.697,52.477z M160.248,55.688c-17.401,18.577-29.475,42.195-33.768,68.401     c-13.4-2.218-26.223-6.861-37.977-13.771C108.35,87.567,132.74,68.88,160.248,55.688z M75.949,126.1     c14.98,9.247,31.501,15.331,48.81,17.98c-0.004,0.438-0.017,0.875-0.017,1.314v100.92h-20.666c-5.523,0-10,4.478-10,10     c0,5.522,4.477,10,10,10h20.666v101.024c0,34.564,13.428,66.047,35.333,89.522C85.395,420.967,33.718,344.564,33.718,256.315     C33.718,207.72,49.399,162.726,75.949,126.1z M130.628,492.097c-29.529,0-57.291-11.499-78.17-32.38     c-32.215-32.215-41.071-79.479-24.144-120.232c11.943,32.766,30.996,62.809,56.39,88.204     c25.287,25.287,55.183,44.283,87.787,56.235C159.378,489.285,145.22,492.097,130.628,492.097z M352.138,456.947     c8.055-8.641,15.014-18.428,20.589-29.206l10.798,10.798C373.497,445.575,363.009,451.721,352.138,456.947z M405.075,431.805     l-59.842-59.843c-1.875-1.875-4.419-2.929-7.071-2.929s-5.196,1.054-7.071,2.929l-39.107,39.107     c-0.476,0.361-0.921,0.768-1.33,1.215c-1.895,2.072-2.83,4.847-2.578,7.644l2.981,33.08l-14.981,14.98l-11.712-42.694     c-0.884-3.224-3.32-5.792-6.492-6.845l-41.339-13.729l13.119-13.118l23.053,2.078c1.056,0.379,2.188,0.596,3.374,0.596     c0.557,0,1.1-0.057,1.633-0.145l5.02,0.452c2.793,0.243,5.57-0.684,7.644-2.578c0.448-0.41,0.854-0.856,1.216-1.332     l39.106-39.105c3.905-3.905,3.905-10.237,0-14.143l-59.843-59.843l13.595-13.595l81.338,42.571     c3.875,2.025,8.616,1.303,11.708-1.789l26.994-26.994c9.493-9.493,22.405-14.937,35.69-15.296     c-0.36,13.284-5.804,26.197-15.296,35.689l-26.994,26.994c-3.092,3.092-3.816,7.834-1.789,11.708l42.57,81.339L405.075,431.805z      M397.227,334.11l21.798-21.797c12.325-12.326,19.711-28.823,20.974-45.998h38.212c-2.115,47.274-19.194,92.467-48.805,129.279     L397.227,334.11z"/>
			<path id="XMLID_1494_" d="M64.077,246.317c-2.63,0-5.21,1.061-7.07,2.93c-1.86,1.86-2.93,4.431-2.93,7.07     c0,2.63,1.07,5.21,2.93,7.07c1.86,1.859,4.44,2.93,7.07,2.93c2.63,0,5.21-1.07,7.07-2.93c1.86-1.86,2.93-4.44,2.93-7.07     c0-2.63-1.07-5.21-2.93-7.07C69.287,247.377,66.707,246.317,64.077,246.317z"/>
			<path id="XMLID_1495_" d="M256.077,226.157c2.63,0,5.21-1.06,7.07-2.93c1.86-1.86,2.93-4.44,2.93-7.07s-1.07-5.21-2.93-7.069     c-1.86-1.86-4.44-2.931-7.07-2.931c-2.63,0-5.21,1.07-7.07,2.931c-1.86,1.859-2.93,4.439-2.93,7.069c0,2.641,1.07,5.21,2.93,7.07     C250.867,225.097,253.447,226.157,256.077,226.157z"/>
		</g>
	</g>
</g>















</svg>
