<?xml version="1.0" encoding="iso-8859-1"?>
<svg xmlns="http://www.w3.org/2000/svg" xmlns:xlink="http://www.w3.org/1999/xlink" version="1.1" id="Layer_1" x="0px" y="0px" viewBox="0 0 512 512" style="enable-background:new 0 0 512 512;" xml:space="preserve" width="512" height="512">
<g id="XMLID_2044_">
	<g id="XMLID_2045_">
		<g id="XMLID_2046_">
			<g id="XMLID_583_">
				<path id="XMLID_636_" d="M395.576,265.875h48c5.523,0,10-4.478,10-10V123.917h8.5c3.686,0,7.073-2.027,8.814-5.276      c1.741-3.249,1.554-7.192-0.487-10.261l-42.5-63.917C426.05,41.675,422.924,40,419.576,40s-6.474,1.675-8.327,4.463      l-42.5,63.917c-2.041,3.069-2.228,7.012-0.487,10.261c1.741,3.249,5.128,5.276,8.814,5.276h8.5v131.958      C385.576,261.397,390.053,265.875,395.576,265.875z M419.576,68.061l23.843,35.857c-5.45,0.084-9.843,4.529-9.843,9.999v131.958      h-28V113.917c0-5.47-4.393-9.915-9.843-9.999L419.576,68.061z"/>
				<path id="XMLID_645_" d="M274.627,266h48c5.523,0,10-4.478,10-10V152.917h8.5c3.686,0,7.073-2.027,8.814-5.276      c1.741-3.249,1.554-7.192-0.487-10.261l-42.5-63.917c-1.854-2.788-4.979-4.463-8.327-4.463s-6.474,1.675-8.327,4.463      l-42.5,63.917c-2.041,3.069-2.228,7.012-0.487,10.261c1.741,3.249,5.128,5.276,8.814,5.276h8.5V256      C264.627,261.522,269.104,266,274.627,266z M298.627,97.061l23.843,35.857c-5.45,0.084-9.843,4.529-9.843,9.999V246h-28V142.917      c0-5.47-4.393-9.915-9.843-9.999L298.627,97.061z"/>
				<path id="XMLID_646_" d="M95.25,99c2.64,0,5.21-1.07,7.07-2.93c1.87-1.86,2.93-4.44,2.93-7.07c0-2.63-1.06-5.21-2.93-7.07      c-1.86-1.86-4.43-2.93-7.07-2.93c-2.63,0-5.2,1.07-7.07,2.93c-1.86,1.86-2.93,4.44-2.93,7.07c0,2.63,1.07,5.21,2.93,7.07      C90.04,97.93,92.62,99,95.25,99z"/>
				<path id="XMLID_647_" d="M502,0H95.254c-5.523,0-10,4.477-10,10v39c0,5.523,4.477,10,10,10s10-4.477,10-10V20H492v284H267.12      c-5.523,0-10,4.478-10,10s4.477,10,10,10H502c5.523,0,10-4.478,10-10V10C512,4.477,507.523,0,502,0z"/>
				<path id="XMLID_648_" d="M220.05,306.93c-1.86,1.86-2.93,4.44-2.93,7.07s1.07,5.21,2.93,7.069c1.86,1.86,4.44,2.931,7.07,2.931      c2.63,0,5.21-1.07,7.07-2.931c1.86-1.859,2.93-4.439,2.93-7.069s-1.07-5.21-2.93-7.07c-1.86-1.86-4.44-2.93-7.07-2.93      C224.49,304,221.91,305.069,220.05,306.93z"/>
				<path id="XMLID_651_" d="M212.287,367.478h-32.826c10.93-11.504,17.659-27.037,17.659-44.12v-33.622v-2.393      c0-7.434-1.286-14.571-3.623-21.216h8.181c5.523,0,10-4.478,10-10v-53.21h8.5c3.686,0,7.073-2.027,8.814-5.276      c1.741-3.249,1.554-7.192-0.487-10.261l-42.5-63.917c-1.854-2.788-4.979-4.463-8.327-4.463s-6.474,1.675-8.327,4.463      l-42.5,63.917c-2.041,3.069-2.228,7.012-0.487,10.261c1.741,3.249,5.128,5.276,8.814,5.276h8.5v21.212      c-3.475-0.585-7.039-0.906-10.678-0.906c-9.933,0-19.345,2.271-27.746,6.32V129c0-5.523-4.477-10-10-10s-10,4.477-10,10v115.602      c-10.173,11.352-16.374,26.334-16.374,42.741v2.393v33.622c0,17.083,6.729,32.616,17.659,44.12H53.713      C24.096,367.478,0,391.573,0,421.19V502c0,5.522,4.477,10,10,10h246c5.523,0,10-4.478,10-10v-80.81      C266,391.573,241.904,367.478,212.287,367.478z M90.249,387.478h24.221L90.249,410.75V387.478z M175.751,387.478v23.272      l-24.221-23.272H175.751z M153.835,182.918l23.843-35.857l23.843,35.857c-5.45,0.084-9.843,4.528-9.843,9.999v53.21h-9.61      c-5.126-6.093-11.356-11.225-18.39-15.074v-38.137C163.678,187.446,159.285,183.002,153.835,182.918z M176.884,282.759      l-20.903-12.28c-4.212-2.476-9.594-1.544-12.73,2.199c-9.422,11.244-23.239,17.693-37.909,17.693H88.88v-0.636v-2.393      c0-24.328,19.792-44.12,44.12-44.12C155.781,243.223,174.584,260.576,176.884,282.759z M88.88,323.357v-12.986h16.461      c17.724,0,34.563-6.704,47.347-18.631l24.432,14.354v17.263c0,24.328-19.792,44.12-44.12,44.12S88.88,347.686,88.88,323.357z       M246,492H20v-70.81c0-18.59,15.124-33.713,33.713-33.713h16.536v46.749c0,4.009,2.394,7.629,6.081,9.2      c3.687,1.57,7.957,0.787,10.847-1.989L123,407.017v30.106c0,5.522,4.477,10,10,10s10-4.478,10-10v-30.106l35.823,34.42      c1.9,1.825,4.396,2.789,6.93,2.789c1.321,0,2.653-0.262,3.917-0.8c3.688-1.571,6.081-5.191,6.081-9.2v-46.749h16.536      c18.589,0,33.713,15.123,33.713,33.713V492z"/>
			</g>
		</g>
	</g>
</g>















</svg>
