<svg xmlns="http://www.w3.org/2000/svg" viewBox="0 0 512.097 512.097" style="enable-background:new 0 0 512.097 512.097" xml:space="preserve" width="512" height="512"><path d="M491.952 200.305c31.821-50.432 25.787-118.071-18.112-161.97-42.533-42.534-108.176-50.583-159.631-19.577a9.977 9.977 0 0 0-2.089 1.69 244.175 244.175 0 0 0-56.043-6.493c-64.737 0-125.599 25.21-171.374 70.985S13.718 191.579 13.718 256.315c0 18.988 2.186 37.638 6.406 55.677-.019.029-.041.055-.06.085C4.558 336.71-2.28 366.304.811 395.408c3.138 29.544 16.457 57.405 37.503 78.452 24.658 24.657 57.442 38.237 92.313 38.237 24.935 0 48.801-6.947 69.393-19.919a244.187 244.187 0 0 0 56.057 6.496c51.42 0 100.345-15.819 141.792-45.79l.135.135a10.001 10.001 0 0 0 14.142 0l25.862-25.862a10 10 0 0 0 1.789-11.708l-.351-.671c38.068-44.016 58.991-100.111 58.991-158.463 0-19.105-2.213-37.868-6.485-56.01zm-13.751 46.01h-27.715l23.354-23.354c.61-.61 1.205-1.228 1.8-1.847a222.555 222.555 0 0 1 2.561 25.201zm-212.124 74.777 23.406 23.406-23.406 23.405v-46.811zm-36.437-36.437 16.438 16.437v71.91l-19.292-1.739a10.024 10.024 0 0 0-7.969 2.889l-27.883 27.883a10.002 10.002 0 0 0 3.92 16.562l41.339 13.728-27.394 27.393a112.91 112.91 0 0 1-5.846 5.444c-34.648-18.892-58.209-55.657-58.209-97.822V266.315h89.094l-4.197 4.197c-3.906 3.905-3.906 10.237-.001 14.143zm81.755 171.218-2.97-32.962 29.736-29.735 19.579 19.579c-10.885 24.351-29.77 43.421-52.798 54.651l3.564-3.564a10 10 0 0 0 2.889-7.969zm-55.318 22.801a110.977 110.977 0 0 1-32.968-4.983l26.517-26.517 8.63 31.459c-.726.015-1.45.041-2.179.041zm10-444.16c50.122 4.483 90.789 42.318 99.573 91.097h-99.573V34.514zm85.829 21.174c27.508 13.192 51.898 31.879 71.745 54.63a110.357 110.357 0 0 1-37.977 13.771c-4.293-26.206-16.367-49.824-33.768-68.401zM246.077 34.514v91.097h-99.573c8.784-48.779 49.451-86.614 99.573-91.097zM144.895 145.611h101.183v30.55c0 5.522 4.477 10 10 10s10-4.478 10-10v-30.55H367.26c.051 0 .101-.003.152-.003v100.707H273.81l-6.599-3.454a10.003 10.003 0 0 0-11.709 1.789l-1.852 1.852a10.066 10.066 0 0 0-1.907-.187h-107V145.608c.051 0 .101.003.152.003zm222.517 120.704v.253l-18.863 18.864-36.526-19.117h55.389zm19.983-122.235c17.309-2.65 33.83-8.733 48.81-17.98 15.246 21.032 26.906 44.821 34.069 70.471a110.972 110.972 0 0 1-10.577 12.248L425.916 242.6c-13.396-.807-26.768 2.184-38.504 8.428V145.395c0-.44-.013-.876-.017-1.315zm72.302-91.603c32.475 32.474 40.478 80.29 24.019 120.332-11.951-32.635-30.958-62.56-56.265-87.868-25.421-25.421-55.499-44.488-88.305-56.428 40.821-17.023 88.452-8.135 120.551 23.964zm-299.449 3.211c-17.401 18.577-29.475 42.195-33.768 68.401a110.336 110.336 0 0 1-37.977-13.771c19.847-22.751 44.237-41.438 71.745-54.63zM75.949 126.1c14.98 9.247 31.501 15.331 48.81 17.98-.004.438-.017.875-.017 1.314v100.92h-20.666c-5.523 0-10 4.478-10 10s4.477 10 10 10h20.666v101.024c0 34.564 13.428 66.047 35.333 89.522-74.68-35.893-126.357-112.296-126.357-200.545 0-48.595 15.681-93.589 42.231-130.215zm54.679 365.997c-29.529 0-57.291-11.499-78.17-32.38-32.215-32.215-41.071-79.479-24.144-120.232 11.943 32.766 30.996 62.809 56.39 88.204 25.287 25.287 55.183 44.283 87.787 56.235-13.113 5.361-27.271 8.173-41.863 8.173zm221.51-35.15a131.237 131.237 0 0 0 20.589-29.206l10.798 10.798a222.394 222.394 0 0 1-31.387 18.408zm52.937-25.142-59.842-59.843a10.001 10.001 0 0 0-14.142 0l-39.107 39.107a9.997 9.997 0 0 0-3.908 8.859l2.981 33.08-14.981 14.98-11.712-42.694a9.997 9.997 0 0 0-6.492-6.845l-41.339-13.729 13.119-13.118 23.053 2.078a9.958 9.958 0 0 0 3.374.596c.557 0 1.1-.057 1.633-.145l5.02.452c2.793.243 5.57-.684 7.644-2.578.448-.41.854-.856 1.216-1.332l39.106-39.105c3.905-3.905 3.905-10.237 0-14.143l-59.843-59.843 13.595-13.595 81.338 42.571a10.003 10.003 0 0 0 11.708-1.789l26.994-26.994c9.493-9.493 22.405-14.937 35.69-15.296-.36 13.284-5.804 26.197-15.296 35.689l-26.994 26.994a10 10 0 0 0-1.789 11.708l42.57 81.339-13.596 13.596zm-7.848-97.695 21.798-21.797c12.325-12.326 19.711-28.823 20.974-45.998h38.212c-2.115 47.274-19.194 92.467-48.805 129.279l-32.179-61.484z"/><path d="M64.077 246.317c-2.63 0-5.21 1.061-7.07 2.93a10.06 10.06 0 0 0-2.93 7.07c0 2.63 1.07 5.21 2.93 7.07a10.08 10.08 0 0 0 7.07 2.93c2.63 0 5.21-1.07 7.07-2.93 1.86-1.86 2.93-4.44 2.93-7.07s-1.07-5.21-2.93-7.07a10.033 10.033 0 0 0-7.07-2.93zm192-20.16c2.63 0 5.21-1.06 7.07-2.93 1.86-1.86 2.93-4.44 2.93-7.07s-1.07-5.21-2.93-7.069a10.077 10.077 0 0 0-7.07-2.931c-2.63 0-5.21 1.07-7.07 2.931a10.072 10.072 0 0 0-2.93 7.069c0 2.641 1.07 5.21 2.93 7.07 1.86 1.87 4.44 2.93 7.07 2.93z"/></svg>