<svg xmlns="http://www.w3.org/2000/svg" style="enable-background:new 0 0 512 512" xml:space="preserve" width="512" height="512"><path d="M395.576 265.875h48c5.523 0 10-4.478 10-10V123.917h8.5a9.999 9.999 0 0 0 8.327-15.537l-42.5-63.917a9.998 9.998 0 0 0-16.654 0l-42.5 63.917a10 10 0 0 0 8.327 15.537h8.5v131.958c0 5.522 4.477 10 10 10zm24-197.814 23.843 35.857c-5.45.084-9.843 4.529-9.843 9.999v131.958h-28V113.917c0-5.47-4.393-9.915-9.843-9.999l23.843-35.857zM274.627 266h48c5.523 0 10-4.478 10-10V152.917h8.5a9.999 9.999 0 0 0 8.327-15.537l-42.5-63.917a10 10 0 0 0-16.654 0l-42.5 63.917a10 10 0 0 0 8.327 15.537h8.5V256c0 5.522 4.477 10 10 10zm24-168.939 23.843 35.857c-5.45.084-9.843 4.529-9.843 9.999V246h-28V142.917c0-5.47-4.393-9.915-9.843-9.999l23.843-35.857zM95.25 99c2.64 0 5.21-1.07 7.07-2.93 1.87-1.86 2.93-4.44 2.93-7.07s-1.06-5.21-2.93-7.07A10.058 10.058 0 0 0 95.25 79c-2.63 0-5.2 1.07-7.07 2.93A10.076 10.076 0 0 0 85.25 89c0 2.63 1.07 5.21 2.93 7.07 1.86 1.86 4.44 2.93 7.07 2.93z"/><path d="M502 0H95.254c-5.523 0-10 4.477-10 10v39c0 5.523 4.477 10 10 10s10-4.477 10-10V20H492v284H267.12c-5.523 0-10 4.478-10 10s4.477 10 10 10H502c5.523 0 10-4.478 10-10V10c0-5.523-4.477-10-10-10zM220.05 306.93c-1.86 1.86-2.93 4.44-2.93 7.07s1.07 5.21 2.93 7.069a10.077 10.077 0 0 0 7.07 2.931c2.63 0 5.21-1.07 7.07-2.931 1.86-1.859 2.93-4.439 2.93-7.069s-1.07-5.21-2.93-7.07a10.076 10.076 0 0 0-7.07-2.93c-2.63 0-5.21 1.069-7.07 2.93z"/><path d="M212.287 367.478h-32.826c10.93-11.504 17.659-27.037 17.659-44.12v-36.015a63.822 63.822 0 0 0-3.623-21.216h8.181c5.523 0 10-4.478 10-10v-53.21h8.5a9.999 9.999 0 0 0 8.327-15.537l-42.5-63.917a10 10 0 0 0-16.654 0l-42.5 63.917a10 10 0 0 0 8.327 15.537h8.5v21.212a64.253 64.253 0 0 0-10.678-.906 63.737 63.737 0 0 0-27.746 6.32V129c0-5.523-4.477-10-10-10s-10 4.477-10 10v115.602c-10.173 11.352-16.374 26.334-16.374 42.741v36.015c0 17.083 6.729 32.616 17.659 44.12H53.713C24.096 367.478 0 391.573 0 421.19V502c0 5.522 4.477 10 10 10h246c5.523 0 10-4.478 10-10v-80.81c0-29.617-24.096-53.712-53.713-53.712zm-122.038 20h24.221L90.249 410.75v-23.272zm85.502 0v23.272l-24.221-23.272h24.221zm-21.916-204.56 23.843-35.857 23.843 35.857c-5.45.084-9.843 4.528-9.843 9.999v53.21h-9.61a64.549 64.549 0 0 0-18.39-15.074v-38.137c0-5.47-4.393-9.914-9.843-9.998zm23.049 99.841-20.903-12.28a9.998 9.998 0 0 0-12.73 2.199 49.341 49.341 0 0 1-37.909 17.693H88.88v-3.029c0-24.328 19.792-44.12 44.12-44.12 22.781.001 41.584 17.354 43.884 39.537zM88.88 323.357v-12.986h16.461c17.724 0 34.563-6.704 47.347-18.631l24.432 14.354v17.263c0 24.328-19.792 44.12-44.12 44.12s-44.12-19.791-44.12-44.12zM246 492H20v-70.81c0-18.59 15.124-33.713 33.713-33.713h16.536v46.749a10 10 0 0 0 16.928 7.211L123 407.017v30.106c0 5.522 4.477 10 10 10s10-4.478 10-10v-30.106l35.823 34.42a10 10 0 0 0 16.928-7.211v-46.749h16.536c18.589 0 33.713 15.123 33.713 33.713V492z"/></svg>